# Blender 3.4.1
# www.blender.org
mtllib blob.mtl
o Icosphere.001
v 0.005867 -0.320868 -0.018102
v 0.361804 -0.223610 0.262863
v -0.114474 -0.199103 0.352584
v -0.447213 -0.223608 0.000000
v -0.138194 -0.223610 -0.425325
v 0.361804 -0.223610 -0.262863
v 0.135544 0.219343 0.417225
v -0.361804 0.223610 0.262863
v -0.361804 0.223610 -0.262863
v 0.138194 0.223610 -0.425325
v 0.368218 0.168446 -0.011806
v 0.002371 0.515090 0.001347
v -0.062818 -0.333616 0.193821
v 0.182760 -0.336187 0.122887
v 0.131864 -0.263729 0.405829
v 0.425324 -0.262868 0.000000
v 0.173821 -0.321760 -0.136725
v -0.220320 -0.304807 -0.008027
v -0.344095 -0.262868 0.249998
v -0.081228 -0.335705 -0.174537
v -0.344095 -0.262868 -0.249998
v 0.131434 -0.262869 -0.404506
v 0.365891 -0.020488 0.116028
v 0.475529 0.000000 -0.154506
v -0.010354 -0.002401 0.422397
v 0.212573 -0.014248 0.316459
v -0.388510 -0.000055 0.116748
v -0.229087 -0.000409 0.313660
v -0.293893 0.000000 -0.404508
v -0.475529 0.000000 -0.154506
v 0.293893 0.000000 -0.404508
v 0.000000 0.000000 -0.500000
v 0.280333 0.202994 0.196808
v -0.134576 0.269641 0.415006
v -0.425324 0.262868 0.000000
v -0.131434 0.262869 -0.404506
v 0.351167 0.268596 -0.253617
v 0.069087 0.362070 0.212126
v 0.203304 0.327415 -0.016430
v -0.212661 0.425327 0.154506
v -0.212661 0.425327 -0.154506
v 0.081228 0.425327 -0.249998
v 0.427735 -0.250243 -0.007421
v -0.373293 -0.251751 0.179210
v 0.319121 -0.250447 0.229493
v 0.206774 -0.250659 0.359253
v 0.124836 -0.250813 0.406648
v 0.082934 -0.250892 0.395253
v 0.136049 -0.250792 0.401195
v 0.404965 -0.250286 0.084249
v -0.390819 -0.251784 -0.001995
v 0.422231 -0.250253 0.006039
v -0.345982 -0.251700 0.244336
v -0.303590 -0.251620 0.268094
v -0.094458 -0.251226 0.291064
v -0.339195 -0.251687 0.252711
vn -0.0306 -0.9971 -0.0699
vn 0.3852 -0.8945 0.2267
vn -0.0743 -0.9937 -0.0839
vn -0.0645 -0.9894 0.1297
vn 0.0441 -0.9966 0.0700
vn 0.9675 0.1350 0.2136
vn -0.2568 -0.1997 0.9456
vn -0.9215 0.0402 0.3864
vn -0.5746 -0.3304 -0.7488
vn 0.5346 -0.3304 -0.7779
vn 0.7388 0.3850 0.5531
vn -0.4443 -0.0815 0.8922
vn -0.9483 0.0901 0.3042
vn -0.3066 -0.1256 -0.9435
vn 0.8026 -0.1256 -0.5831
vn 0.5833 0.7430 0.3281
vn -0.5030 0.6671 0.5495
vn -0.7002 0.6617 -0.2680
vn 0.0385 0.6617 -0.7488
vn 0.6696 0.7017 0.2434
vn 0.6795 0.7321 -0.0483
vn 0.5006 0.8600 0.0988
vn 0.3780 0.6658 -0.6433
vn -0.1192 0.9226 -0.3669
vn -0.1876 0.7947 -0.5773
vn -0.4713 0.6617 -0.5831
vn -0.3852 0.9228 -0.0000
vn -0.6071 0.7947 -0.0000
vn -0.7002 0.6617 0.2680
vn 0.0665 0.8173 0.5723
vn 0.0945 0.8668 0.4897
vn 0.1509 0.8337 0.5313
vn 0.6672 0.6871 0.2876
vn 0.5957 0.7686 0.2333
vn 0.6815 0.7119 0.1692
vn 0.8816 0.4548 0.1262
vn 0.7991 0.1558 -0.5806
vn 0.5547 0.3145 -0.7704
vn -0.0247 0.3304 -0.9435
vn -0.3035 0.1876 -0.9342
vn -0.5346 0.3304 -0.7779
vn -0.9050 0.3304 -0.2680
vn -0.9522 0.0023 0.3055
vn -0.9726 -0.0341 0.2299
vn -0.5340 -0.1268 0.8359
vn -0.4394 -0.1767 0.8807
vn -0.0034 0.0256 0.9997
vn 0.8365 0.0401 0.5465
vn 0.7927 0.0853 0.6037
vn 0.9110 0.2234 0.3468
vn 0.3066 0.1256 -0.9435
vn 0.3035 -0.1876 -0.9342
vn 0.0247 -0.3304 -0.9435
vn -0.8026 0.1256 -0.5831
vn -0.7947 -0.1876 -0.5773
vn -0.8897 -0.3304 -0.3151
vn -0.7409 -0.3031 0.5993
vn -0.7637 0.1846 0.6186
vn -0.3961 -0.0489 0.9169
vn 0.4053 -0.2461 0.8804
vn 0.4301 0.1779 0.8851
vn 0.5047 0.1418 0.8516
vn 0.8916 0.2461 0.3800
vn 0.9246 0.0457 0.3782
vn 0.9050 -0.3304 -0.2680
vn 0.3105 -0.9169 -0.2508
vn 0.0867 -0.9700 -0.2271
vn -0.1036 -0.9166 -0.3862
vn -0.1456 -0.9151 -0.3760
vn -0.2573 -0.9657 -0.0358
vn -0.3367 -0.9416 0.0090
vn -0.2959 -0.9548 0.0288
vn -0.2352 -0.9709 0.0450
vn -0.0680 -0.7720 0.6320
vn 0.3331 -0.9175 -0.2175
vn 0.2596 -0.9637 -0.0625
vn -0.0434 -0.9976 -0.0539
vn -0.3211 -0.7715 0.5492
vn 0.0646 -0.9639 0.2584
vn 0.3366 -0.8959 0.2900
vn -0.4453 -0.8943 0.0432
vn -0.3961 -0.0488 0.9169
vn -0.0354 -0.0000 -0.9994
vn -0.3372 -0.9414 -0.0087
vt 0.181819 0.000000
vt 0.909091 0.000000
vt 0.727273 0.000000
vt 0.545455 0.000000
vt 0.363637 0.000000
vt 0.272728 0.157461
vt 0.090910 0.157461
vt 1.000000 0.157461
vt 0.818182 0.157461
vt 0.636364 0.157461
vt 0.454546 0.157461
vt 0.181819 0.314921
vt 0.000000 0.314921
vt 0.909091 0.314921
vt 0.727273 0.314921
vt 0.545455 0.314921
vt 0.363637 0.314921
vt 0.454546 0.472382
vt 0.636364 0.472382
vt 0.818182 0.472382
vt 0.090910 0.472382
vt 0.272728 0.472382
vt 0.954545 0.078731
vt 0.136365 0.078731
vt 0.227273 0.078731
vt 0.318182 0.078731
vt 0.181819 0.157461
vt 0.363637 0.157461
vt 0.500000 0.078731
vt 0.409092 0.078731
vt 0.772727 0.078731
vt 0.863636 0.078731
vt 0.909091 0.157461
vt 0.590909 0.078731
vt 0.681818 0.078731
vt 0.727273 0.157461
vt 0.545455 0.157461
vt 0.318182 0.236191
vt 0.409092 0.236191
vt 0.136365 0.236191
vt 0.227273 0.236191
vt 0.863636 0.236191
vt 0.045455 0.236191
vt 0.954545 0.236191
vt 0.681818 0.236191
vt 0.772727 0.236191
vt 0.500000 0.236191
vt 0.590909 0.236191
vt 0.272728 0.314921
vt 0.090910 0.314921
vt 0.818182 0.314921
vt 0.636364 0.314921
vt 0.454546 0.314921
vt 0.136365 0.393651
vt 0.227273 0.393651
vt 0.409092 0.393651
vt 0.318182 0.393651
vt 0.863636 0.393651
vt 0.045455 0.393651
vt 0.681818 0.393651
vt 0.772727 0.393651
vt 0.500000 0.393651
vt 0.590909 0.393651
vt 0.365820 0.161242
vt 0.883349 0.157461
vt 0.261892 0.138692
vt 0.283564 0.138692
vt 0.211435 0.157461
vt 0.179573 0.161352
vt 0.163762 0.157461
vt 0.184176 0.161544
vt 0.334500 0.157461
vt 0.829480 0.137893
vt 0.806884 0.137893
vt 0.361271 0.161559
vt 0.907159 0.160807
vt 0.925127 0.157461
vt 0.982387 0.126953
vt 0.108523 0.126953
vt 0.911027 0.160815
s 0
f 1/1/1 14/25/1 13/24/1
f 2/6/2 45/67/2 50/72/2
f 1/2/3 13/23/3 18/32/3
f 1/3/4 18/31/4 20/35/4
f 1/4/5 20/34/5 17/29/5
f 50/72/6 23/38/6 2/6/6
f 3/7/7 47/69/7 25/40/7
f 44/65/8 27/42/8 4/9/8
f 5/10/9 21/36/9 29/45/9
f 6/11/10 22/37/10 31/47/10
f 2/6/11 23/38/11 26/41/11
f 3/7/12 25/40/12 28/43/12
f 4/9/13 27/42/13 30/46/13
f 5/10/14 29/45/14 32/48/14
f 6/11/15 31/47/15 24/39/15
f 7/12/16 33/49/16 38/55/16
f 8/13/17 34/50/17 40/59/17
f 9/15/18 35/51/18 41/61/18
f 10/16/19 36/52/19 42/63/19
f 11/17/20 37/53/20 39/56/20
f 39/56/21 42/62/21 12/18/21
f 39/56/22 37/53/22 42/62/22
f 37/53/23 10/16/23 42/62/23
f 42/63/24 41/60/24 12/19/24
f 42/63/25 36/52/25 41/60/25
f 36/52/26 9/15/26 41/60/26
f 41/61/27 40/58/27 12/20/27
f 41/61/28 35/51/28 40/58/28
f 35/51/29 8/14/29 40/58/29
f 40/59/30 38/54/30 12/21/30
f 40/59/31 34/50/31 38/54/31
f 34/50/32 7/12/32 38/54/32
f 38/55/33 39/57/33 12/22/33
f 38/55/34 33/49/34 39/57/34
f 33/49/35 11/17/35 39/57/35
f 24/39/36 37/53/36 11/17/36
f 24/39/37 31/47/37 37/53/37
f 31/47/38 10/16/38 37/53/38
f 32/48/39 36/52/39 10/16/39
f 32/48/40 29/45/40 36/52/40
f 29/45/41 9/15/41 36/52/41
f 30/46/42 35/51/42 9/15/42
f 30/46/43 27/42/43 35/51/43
f 27/42/44 8/14/44 35/51/44
f 28/43/45 34/50/45 8/13/45
f 28/43/46 25/40/46 34/50/46
f 25/40/47 7/12/47 34/50/47
f 26/41/48 33/49/48 7/12/48
f 26/41/49 23/38/49 33/49/49
f 23/38/50 11/17/50 33/49/50
f 31/47/51 32/48/51 10/16/51
f 31/47/52 22/37/52 32/48/52
f 22/37/53 5/10/53 32/48/53
f 29/45/54 30/46/54 9/15/54
f 29/45/55 21/36/55 30/46/55
f 21/36/56 4/9/56 30/46/56
f 27/42/57 28/44/57 8/14/57
f 53/76/58 28/44/58 27/42/58
f 19/33/59 54/77/59 56/80/59
f 25/40/60 26/41/60 7/12/60
f 47/69/61 26/41/61 25/40/61
f 15/27/62 46/68/62 49/71/62
f 23/38/63 24/39/63 11/17/63
f 23/38/64 43/64/64 24/39/64
f 6/11/65 43/64/65 16/28/65
f 17/29/66 22/37/66 6/11/66
f 17/29/67 20/34/67 22/37/67
f 20/34/68 5/10/68 22/37/68
f 20/35/69 21/36/69 5/10/69
f 20/35/70 18/31/70 21/36/70
f 18/31/71 4/9/71 21/36/71
f 18/32/72 44/65/72 51/73/72
f 18/32/73 13/23/73 19/33/73
f 55/78/74 19/33/74 13/23/74
f 16/28/75 17/30/75 6/11/75
f 16/28/76 14/26/76 17/30/76
f 14/26/77 1/5/77 17/30/77
f 15/27/78 55/79/78 13/24/78
f 13/24/79 14/25/79 15/27/79
f 14/25/80 46/68/80 15/27/80
f 56/80/58 53/76/58 19/33/58
f 46/68/62 26/41/62 49/71/62
f 43/64/64 52/75/64 16/28/64
f 51/73/81 44/65/81 4/9/81
f 54/77/74 55/78/74 3/8/74
f 50/72/2 14/26/2 16/28/2
f 55/79/78 48/70/78 3/7/78
f 46/68/80 45/66/80 2/6/80
f 53/76/8 44/65/8 19/33/8
f 52/75/6 50/72/6 16/28/6
f 56/80/82 3/8/82 28/44/82
f 49/71/61 47/69/61 15/27/61
f 47/69/7 48/70/7 15/27/7
f 50/72/6 52/75/6 23/38/6
f 3/7/7 48/70/7 47/69/7
f 44/65/8 53/76/8 27/42/8
f 53/76/58 56/80/58 28/44/58
f 47/69/61 49/71/61 26/41/61
f 23/38/64 52/75/64 43/64/64
f 6/11/65 24/39/65 43/64/65
f 18/31/83 51/74/83 4/9/83
f 18/32/84 19/33/84 44/65/84
f 55/78/74 54/77/74 19/33/74
f 15/27/78 48/70/78 55/79/78
f 14/25/80 45/66/80 46/68/80
f 46/68/62 2/6/62 26/41/62
f 50/72/2 45/67/2 14/26/2
f 56/80/82 54/77/82 3/8/82
