# Blender 3.4.1
# www.blender.org
mtllib portal.mtl
o Torus.001
v 0.000000 0.100000 0.000000
v 0.000000 0.099199 -0.287013
v 0.000000 -0.033883 -0.883884
v 0.216506 0.231282 -0.618719
v 0.000000 0.319670 -0.530330
v -0.216506 0.231282 -0.618719
v 0.000000 0.371645 -1.154849
v 0.216506 0.419481 -1.039364
v 0.216506 0.515152 -0.808394
v 0.000000 0.562987 -0.692910
v -0.216506 0.515152 -0.808394
v -0.216506 0.419481 -1.039364
v 0.000000 0.850000 -1.250000
v 0.216506 0.850000 -1.125000
v 0.216506 0.850000 -0.875000
v 0.000000 0.850000 -0.750000
v -0.216506 0.850000 -0.875000
v -0.216506 0.850000 -1.125000
v -0.000000 1.328354 -1.154849
v 0.216506 1.280519 -1.039364
v 0.216506 1.184848 -0.808395
v -0.000000 1.137013 -0.692910
v -0.216506 1.184848 -0.808395
v -0.216506 1.280519 -1.039364
v -0.000000 1.733884 -0.883883
v 0.216506 1.645495 -0.795495
v 0.216506 1.468719 -0.618718
v -0.000000 1.380330 -0.530330
v -0.216506 1.468719 -0.618718
v -0.216506 1.645495 -0.795495
v -0.000000 2.004849 -0.478354
v 0.216506 1.889364 -0.430519
v 0.216506 1.658395 -0.334848
v -0.000000 1.542910 -0.287013
v -0.216506 1.658395 -0.334848
v -0.216506 1.889364 -0.430519
v -0.000000 2.100000 -0.000000
v 0.216506 1.975000 -0.000000
v 0.216506 1.725000 -0.000000
v -0.000000 1.600000 -0.000000
v -0.216506 1.725000 -0.000000
v -0.216506 1.975000 -0.000000
v -0.000000 2.004850 0.478354
v 0.216506 1.889365 0.430518
v 0.216506 1.658395 0.334848
v -0.000000 1.542910 0.287012
v -0.216506 1.658395 0.334848
v -0.216506 1.889365 0.430518
v -0.000000 1.733884 0.883883
v 0.216506 1.645495 0.795495
v 0.216506 1.468719 0.618718
v -0.000000 1.380330 0.530330
v -0.216506 1.468719 0.618718
v -0.216506 1.645495 0.795495
v -0.000000 1.328354 1.154849
v 0.216506 1.280519 1.039364
v 0.216506 1.184848 0.808395
v -0.000000 1.137013 0.692910
v -0.216506 1.184848 0.808395
v -0.216506 1.280519 1.039364
v 0.000000 0.850000 1.250000
v 0.216506 0.850000 1.125000
v 0.216506 0.850000 0.875000
v 0.000000 0.850000 0.750000
v -0.216506 0.850000 0.875000
v -0.216506 0.850000 1.125000
v 0.000000 0.371645 1.154849
v 0.216506 0.419481 1.039364
v 0.216506 0.515152 0.808394
v 0.000000 0.562987 0.692910
v -0.216506 0.515152 0.808394
v -0.216506 0.419481 1.039364
v 0.216506 0.231282 0.618719
v 0.000000 0.319670 0.530330
v -0.216506 0.231282 0.618719
v 0.000000 0.099199 0.287013
v 0.000000 -0.100000 -1.000000
v -0.000000 0.100000 -1.000000
v 0.382683 -0.100000 -0.923880
v 0.382683 0.100000 -0.923880
v 0.707107 -0.100000 -0.707107
v 0.707107 0.100000 -0.707107
v 0.923880 -0.100000 -0.382683
v 0.923880 0.100000 -0.382683
v 1.000000 -0.100000 0.000000
v 1.000000 0.100000 0.000000
v 0.923880 -0.100000 0.382683
v 0.923880 0.100000 0.382683
v 0.707107 -0.100000 0.707107
v 0.707107 0.100000 0.707107
v 0.382683 -0.100000 0.923880
v 0.382683 0.100000 0.923880
v 0.000000 -0.100000 1.000000
v -0.000000 0.100000 1.000000
v -0.382683 -0.100000 0.923880
v -0.382683 0.100000 0.923880
v -0.707107 -0.100000 0.707107
v -0.707107 0.100000 0.707107
v -0.923880 -0.100000 0.382683
v -0.923880 0.100000 0.382683
v -1.000000 -0.100000 0.000000
v -1.000000 0.100000 0.000000
v -0.923880 -0.100000 -0.382683
v -0.923880 0.100000 -0.382683
v -0.707107 -0.100000 -0.707107
v -0.707107 0.100000 -0.707107
v -0.382683 -0.100000 -0.923880
v -0.382683 0.100000 -0.923880
v 0.000000 0.100000 0.000000
v 0.000000 0.100000 -0.973342
v -0.000000 0.100000 -1.000000
v 0.382683 0.100000 -0.923880
v 0.707107 0.100000 -0.707107
v 0.923880 0.100000 -0.382683
v 1.000000 0.100000 0.000000
v 0.923880 0.100000 0.382683
v 0.707107 0.100000 0.707107
v 0.382683 0.100000 0.923880
v -0.000000 0.100000 1.000000
v 0.000000 0.100000 0.973342
v 0.216506 0.100000 0.825894
v 0.216506 0.100000 0.750001
v 0.216506 0.100000 0.422242
v 0.107031 0.100000 0.310661
v 0.107031 0.100000 -0.310660
v 0.000000 0.100000 0.000000
v -0.107031 0.100000 -0.310660
v 0.000000 0.100000 0.000000
v 0.216506 0.100000 -0.750000
v 0.216506 0.100000 -0.422242
v -0.216506 0.100000 -0.422242
v -0.216506 0.100000 -0.750000
v 0.000000 0.100000 -0.973342
v 0.216506 0.100000 -0.825894
v -0.216506 0.100000 -0.825894
v 0.000000 0.100000 0.973342
v 0.216506 0.100000 0.825894
v 0.216506 0.100000 0.750001
v -0.216506 0.100000 0.750001
v -0.216506 0.100000 0.825894
v 0.216506 0.100000 0.422242
v 0.107031 0.100000 0.310661
v -0.107031 0.100000 0.310661
v -0.216506 0.100000 0.422242
v 0.216506 0.100000 -0.825894
v 0.216506 0.100000 -0.750000
v 0.216506 0.100000 -0.422242
v 0.107031 0.100000 -0.310660
v -0.107031 0.100000 -0.310660
v -0.216506 0.100000 -0.422242
v -0.216506 0.100000 -0.750000
v -0.216506 0.100000 -0.825894
v -0.382683 0.100000 -0.923880
v -0.707107 0.100000 -0.707107
v -0.923880 0.100000 -0.382683
v -1.000000 0.100000 0.000000
v -0.923880 0.100000 0.382683
v -0.707107 0.100000 0.707107
v -0.382683 0.100000 0.923880
v -0.216506 0.100000 0.825894
v -0.216506 0.100000 0.750001
v -0.216506 0.100000 0.422242
v -0.107031 0.100000 0.310661
v 0.000000 0.100000 0.000000
vn 0.4927 0.4834 0.7235
vn -0.4927 0.4834 0.7235
vn 0.4927 -0.1698 -0.8535
vn 1.0000 -0.0000 -0.0000
vn 0.4927 0.1698 0.8535
vn -0.4927 0.1698 0.8535
vn -1.0000 -0.0000 -0.0000
vn -0.4927 -0.1698 -0.8535
vn 0.4927 0.1698 -0.8535
vn 0.4927 -0.1698 0.8535
vn -0.4927 -0.1698 0.8535
vn -0.4927 0.1698 -0.8535
vn 0.4927 0.4834 -0.7235
vn 0.4927 -0.4834 0.7235
vn -0.4927 -0.4834 0.7235
vn -0.4927 0.4834 -0.7235
vn 0.4927 0.7235 -0.4834
vn 0.4927 -0.7235 0.4834
vn -0.4927 -0.7235 0.4834
vn -0.4927 0.7235 -0.4834
vn 0.4927 0.8535 -0.1698
vn 0.4927 -0.8535 0.1698
vn -0.4927 -0.8535 0.1698
vn -0.4927 0.8535 -0.1698
vn 0.4927 0.8535 0.1698
vn 0.4927 -0.8535 -0.1698
vn -0.4927 -0.8535 -0.1698
vn -0.4927 0.8535 0.1698
vn 0.4927 0.7235 0.4834
vn 0.4927 -0.7235 -0.4834
vn -0.4927 -0.7235 -0.4834
vn -0.4927 0.7235 0.4834
vn 0.4927 -0.4834 -0.7235
vn -0.4927 -0.4834 -0.7235
vn 0.1951 -0.0000 -0.9808
vn 0.5556 -0.0000 -0.8315
vn 0.8315 -0.0000 -0.5556
vn 0.9808 -0.0000 -0.1951
vn 0.9808 -0.0000 0.1951
vn 0.8315 -0.0000 0.5556
vn 0.5556 -0.0000 0.8315
vn 0.1951 -0.0000 0.9808
vn -0.1951 -0.0000 0.9808
vn -0.5556 -0.0000 0.8315
vn -0.8315 -0.0000 0.5556
vn -0.9808 -0.0000 0.1951
vn -0.9808 -0.0000 -0.1951
vn -0.8315 -0.0000 -0.5556
vn -0.5556 -0.0000 -0.8315
vn -0.1951 -0.0000 -0.9808
vn -0.0000 -1.0000 -0.0000
vn 0.0081 1.0000 0.0028
vn 0.1414 0.7336 0.6647
vn 0.1414 0.7336 -0.6647
vn -0.0000 1.0000 -0.0000
vn 0.0081 1.0000 -0.0028
vn -0.0081 1.0000 0.0028
vn 0.7560 0.6545 0.0018
vn -0.7560 0.6545 0.0018
vn -0.1414 0.7336 0.6647
vn -0.1414 0.7336 -0.6647
vn -0.7558 0.6548 -0.0018
vn 0.7558 0.6548 -0.0018
vn -0.0081 1.0000 -0.0028
vt 0.500000 -0.000000
vt 0.500000 1.000000
vt 0.562500 1.000000
vt 0.562500 -0.000000
vt 0.625000 0.833333
vt 0.625000 1.000000
vt 0.625000 -0.000000
vt 0.625000 0.166667
vt 0.687500 0.500000
vt 0.687500 0.666667
vt 0.687500 0.833333
vt 0.687500 1.000000
vt 0.687500 -0.000000
vt 0.687500 0.166667
vt 0.687500 0.333333
vt 0.750000 0.500000
vt 0.750000 0.666667
vt 0.750000 0.833333
vt 0.750000 -0.000000
vt 0.750000 1.000000
vt 0.750000 0.166667
vt 0.750000 0.333333
vt 0.812500 0.500000
vt 0.812500 0.666667
vt 0.812500 0.833333
vt 0.812500 -0.000000
vt 0.812500 1.000000
vt 0.812500 0.166667
vt 0.812500 0.333333
vt 0.875000 0.500000
vt 0.875000 0.666667
vt 0.875000 0.833333
vt 0.875000 -0.000000
vt 0.875000 1.000000
vt 0.875000 0.166667
vt 0.875000 0.333333
vt 0.937500 0.500000
vt 0.937500 0.666667
vt 0.937500 0.833333
vt 0.937500 -0.000000
vt 0.937500 1.000000
vt 0.937500 0.166667
vt 0.937500 0.333333
vt 1.000000 0.500000
vt 0.000000 0.500000
vt 1.000000 0.666667
vt 0.000000 0.666667
vt 0.000000 0.833333
vt 1.000000 0.833333
vt 0.000000 -0.000000
vt 1.000000 1.000000
vt 1.000000 -0.000000
vt 0.000000 1.000000
vt 1.000000 0.166667
vt 0.000000 0.166667
vt 1.000000 0.333333
vt 0.000000 0.333333
vt 0.062500 0.500000
vt 0.062500 0.666667
vt 0.062500 0.833333
vt 0.062500 1.000000
vt 0.062500 -0.000000
vt 0.062500 0.166667
vt 0.062500 0.333333
vt 0.125000 0.500000
vt 0.125000 0.666667
vt 0.125000 0.833333
vt 0.125000 -0.000000
vt 0.125000 1.000000
vt 0.125000 0.166667
vt 0.125000 0.333333
vt 0.187500 0.500000
vt 0.187500 0.666667
vt 0.187500 0.833333
vt 0.187500 -0.000000
vt 0.187500 1.000000
vt 0.187500 0.166667
vt 0.187500 0.333333
vt 0.250000 0.500000
vt 0.250000 0.666667
vt 0.250000 0.833333
vt 0.250000 1.000000
vt 0.250000 -0.000000
vt 0.250000 0.166667
vt 0.250000 0.333333
vt 0.312500 0.500000
vt 0.312500 0.666667
vt 0.312500 0.833333
vt 0.312500 -0.000000
vt 0.312500 1.000000
vt 0.312500 0.166667
vt 0.312500 0.333333
vt 0.375000 0.833333
vt 0.375000 1.000000
vt 0.375000 -0.000000
vt 0.375000 0.166667
vt 0.437500 1.000000
vt 0.437500 -0.000000
vt 0.000000 0.500000
vt 1.000000 0.500000
vt 0.750000 0.490000
vt 1.000000 1.000000
vt 0.000000 1.000000
vt 0.937500 0.500000
vt 0.841844 0.471731
vt 0.937500 1.000000
vt 0.875000 0.500000
vt 0.919706 0.419706
vt 0.875000 1.000000
vt 0.812500 0.500000
vt 0.971731 0.341844
vt 0.812500 1.000000
vt 0.750000 0.500000
vt 0.990000 0.250000
vt 0.750000 1.000000
vt 0.687500 0.500000
vt 0.971731 0.158156
vt 0.687500 1.000000
vt 0.625000 0.500000
vt 0.919706 0.080294
vt 0.625000 1.000000
vt 0.562500 0.500000
vt 0.841844 0.028269
vt 0.562500 1.000000
vt 0.500000 0.500000
vt 0.750000 0.010000
vt 0.500000 1.000000
vt 0.437500 0.500000
vt 0.658156 0.028269
vt 0.437500 1.000000
vt 0.375000 0.500000
vt 0.580294 0.080294
vt 0.375000 1.000000
vt 0.312500 0.500000
vt 0.528269 0.158156
vt 0.312500 1.000000
vt 0.250000 0.500000
vt 0.510000 0.250000
vt 0.250000 1.000000
vt 0.187500 0.500000
vt 0.528269 0.341844
vt 0.187500 1.000000
vt 0.125000 0.500000
vt 0.580294 0.419706
vt 0.125000 1.000000
vt 0.062500 0.500000
vt 0.658156 0.471731
vt 0.062500 1.000000
vt 0.250000 0.250000
vt 0.250000 0.483602
vt 0.250000 0.490000
vt 0.341844 0.471731
vt 0.419706 0.419706
vt 0.471731 0.341844
vt 0.490000 0.250000
vt 0.471731 0.158156
vt 0.419706 0.080294
vt 0.341844 0.028269
vt 0.250000 0.010000
vt 0.250000 0.016398
vt 0.301962 0.051785
vt 0.301962 0.070000
vt 0.301962 0.148662
vt 0.275687 0.175441
vt 0.562500 0.917608
vt 0.500000 1.000000
vt 0.562500 0.082392
vt 0.500000 0.000000
vt 0.625000 0.709560
vt 0.581742 0.833333
vt 0.581742 0.166667
vt 0.625000 0.290440
vt 0.645634 0.500000
vt 0.632791 0.666667
vt 0.632791 0.333333
vt 0.354366 0.500000
vt 0.367209 0.666667
vt 0.375000 0.709560
vt 0.375000 0.290440
vt 0.367209 0.333333
vt 0.418259 0.833333
vt 0.437500 0.917608
vt 0.437500 0.082392
vt 0.418258 0.166667
vt 0.301962 0.448215
vt 0.301961 0.430000
vt 0.301962 0.351338
vt 0.275687 0.324558
vt 0.224313 0.324558
vt 0.198038 0.351338
vt 0.198038 0.430000
vt 0.198038 0.448215
vt 0.158156 0.471731
vt 0.080294 0.419706
vt 0.028269 0.341844
vt 0.010000 0.250000
vt 0.028269 0.158156
vt 0.080294 0.080294
vt 0.158156 0.028269
vt 0.198039 0.051785
vt 0.198039 0.070000
vt 0.198038 0.148662
vt 0.224313 0.175441
vt 0.250000 0.250000
s 0
f 4/5/1 10/12/1 5/6/1
f 10/13/2 6/8/2 5/7/2
f 7/9/3 14/17/3 8/10/3
f 14/17/4 9/11/4 8/10/4
f 9/11/5 16/20/5 10/12/5
f 16/19/6 11/14/6 10/13/6
f 11/14/7 18/22/7 12/15/7
f 18/22/8 7/9/8 12/15/8
f 19/23/9 14/17/9 13/16/9
f 20/24/4 15/18/4 14/17/4
f 21/25/10 16/20/10 15/18/10
f 22/26/11 17/21/11 16/19/11
f 17/21/7 24/29/7 18/22/7
f 24/29/12 13/16/12 18/22/12
f 25/30/13 20/24/13 19/23/13
f 26/31/4 21/25/4 20/24/4
f 27/32/14 22/27/14 21/25/14
f 28/33/15 23/28/15 22/26/15
f 23/28/7 30/36/7 24/29/7
f 24/29/16 25/30/16 19/23/16
f 25/30/17 32/38/17 26/31/17
f 26/31/4 33/39/4 27/32/4
f 33/39/18 28/34/18 27/32/18
f 34/40/19 29/35/19 28/33/19
f 35/42/7 30/36/7 29/35/7
f 36/43/20 25/30/20 30/36/20
f 37/44/21 32/38/21 31/37/21
f 32/38/4 39/49/4 33/39/4
f 39/49/22 34/41/22 33/39/22
f 40/52/23 35/42/23 34/40/23
f 41/54/7 36/43/7 35/42/7
f 36/43/24 37/44/24 31/37/24
f 43/58/25 38/47/25 37/45/25
f 38/47/4 45/60/4 39/48/4
f 45/60/26 40/53/26 39/48/26
f 46/62/27 41/55/27 40/50/27
f 47/63/7 42/57/7 41/55/7
f 48/64/28 37/45/28 42/57/28
f 49/65/29 44/59/29 43/58/29
f 50/66/4 45/60/4 44/59/4
f 51/67/30 46/61/30 45/60/30
f 46/62/31 53/70/31 47/63/31
f 47/63/7 54/71/7 48/64/7
f 54/71/32 43/58/32 48/64/32
f 49/65/1 56/73/1 50/66/1
f 50/66/4 57/74/4 51/67/4
f 57/74/33 52/69/33 51/67/33
f 58/75/34 53/70/34 52/68/34
f 59/77/7 54/71/7 53/70/7
f 60/78/2 49/65/2 54/71/2
f 61/79/5 56/73/5 55/72/5
f 56/73/4 63/81/4 57/74/4
f 63/81/3 58/76/3 57/74/3
f 64/83/8 59/77/8 58/75/8
f 65/84/7 60/78/7 59/77/7
f 66/85/6 55/72/6 60/78/6
f 67/86/10 62/80/10 61/79/10
f 62/80/4 69/88/4 63/81/4
f 69/88/9 64/82/9 63/81/9
f 64/83/12 71/91/12 65/84/12
f 71/91/7 66/85/7 65/84/7
f 66/85/11 67/86/11 61/79/11
f 73/93/13 70/90/13 69/88/13
f 74/95/16 71/91/16 70/89/16
f 77/100/35 80/106/35 79/104/35
f 80/106/36 81/107/36 79/104/36
f 81/107/37 84/112/37 83/110/37
f 84/112/38 85/113/38 83/110/38
f 86/115/39 87/116/39 85/113/39
f 88/118/40 89/119/40 87/116/40
f 90/121/41 91/122/41 89/119/41
f 92/124/42 93/125/42 91/122/42
f 94/127/43 95/128/43 93/125/43
f 96/130/44 97/131/44 95/128/44
f 98/133/45 99/134/45 97/131/45
f 100/136/46 101/137/46 99/134/46
f 102/139/47 103/140/47 101/137/47
f 103/140/48 106/145/48 105/143/48
f 106/145/49 107/146/49 105/143/49
f 107/146/50 78/103/50 77/99/50
f 107/147/51 83/111/51 91/123/51
f 128/168/52 143/183/52 76/97/52
f 129/169/4 4/5/4 130/170/4
f 5/6/53 2/3/53 125/165/53
f 5/7/32 131/171/32 127/167/32
f 6/8/7 132/172/7 131/171/7
f 133/173/33 8/10/33 134/174/33
f 4/5/4 129/169/4 134/174/4
f 11/14/7 12/15/7 135/175/7
f 12/15/34 133/173/34 135/175/34
f 68/87/14 136/176/14 137/177/14
f 69/88/4 137/177/4 73/93/4
f 75/96/7 139/179/7 140/180/7
f 136/176/15 72/92/15 140/180/15
f 73/93/4 138/178/4 141/181/4
f 142/182/54 76/97/54 74/94/54
f 144/184/20 74/95/20 143/183/20
f 75/96/7 144/184/7 139/179/7
f 111/151/55 110/150/55 145/185/55
f 119/159/55 120/160/55 160/200/55
f 2/4/56 127/167/56 128/168/56
f 4/5/1 9/11/1 10/12/1
f 10/13/2 11/14/2 6/8/2
f 7/9/3 13/16/3 14/17/3
f 14/17/4 15/18/4 9/11/4
f 9/11/5 15/18/5 16/20/5
f 16/19/6 17/21/6 11/14/6
f 11/14/7 17/21/7 18/22/7
f 18/22/8 13/16/8 7/9/8
f 19/23/9 20/24/9 14/17/9
f 20/24/4 21/25/4 15/18/4
f 21/25/10 22/27/10 16/20/10
f 22/26/11 23/28/11 17/21/11
f 17/21/7 23/28/7 24/29/7
f 24/29/12 19/23/12 13/16/12
f 25/30/13 26/31/13 20/24/13
f 26/31/4 27/32/4 21/25/4
f 27/32/14 28/34/14 22/27/14
f 28/33/15 29/35/15 23/28/15
f 23/28/7 29/35/7 30/36/7
f 24/29/16 30/36/16 25/30/16
f 25/30/17 31/37/17 32/38/17
f 26/31/4 32/38/4 33/39/4
f 33/39/18 34/41/18 28/34/18
f 34/40/19 35/42/19 29/35/19
f 35/42/7 36/43/7 30/36/7
f 36/43/20 31/37/20 25/30/20
f 37/44/21 38/46/21 32/38/21
f 32/38/4 38/46/4 39/49/4
f 39/49/22 40/51/22 34/41/22
f 40/52/23 41/54/23 35/42/23
f 41/54/7 42/56/7 36/43/7
f 36/43/24 42/56/24 37/44/24
f 43/58/25 44/59/25 38/47/25
f 38/47/4 44/59/4 45/60/4
f 45/60/26 46/61/26 40/53/26
f 46/62/27 47/63/27 41/55/27
f 47/63/7 48/64/7 42/57/7
f 48/64/28 43/58/28 37/45/28
f 49/65/29 50/66/29 44/59/29
f 50/66/4 51/67/4 45/60/4
f 51/67/30 52/69/30 46/61/30
f 46/62/31 52/68/31 53/70/31
f 47/63/7 53/70/7 54/71/7
f 54/71/32 49/65/32 43/58/32
f 49/65/1 55/72/1 56/73/1
f 50/66/4 56/73/4 57/74/4
f 57/74/33 58/76/33 52/69/33
f 58/75/34 59/77/34 53/70/34
f 59/77/7 60/78/7 54/71/7
f 60/78/2 55/72/2 49/65/2
f 61/79/5 62/80/5 56/73/5
f 56/73/4 62/80/4 63/81/4
f 63/81/3 64/82/3 58/76/3
f 64/83/8 65/84/8 59/77/8
f 65/84/7 66/85/7 60/78/7
f 66/85/6 61/79/6 55/72/6
f 67/86/10 68/87/10 62/80/10
f 62/80/4 68/87/4 69/88/4
f 69/88/9 70/90/9 64/82/9
f 64/83/12 70/89/12 71/91/12
f 71/91/7 72/92/7 66/85/7
f 66/85/11 72/92/11 67/86/11
f 73/93/13 74/94/13 70/90/13
f 74/95/16 75/96/16 71/91/16
f 77/100/35 78/102/35 80/106/35
f 80/106/36 82/109/36 81/107/36
f 81/107/37 82/109/37 84/112/37
f 84/112/38 86/115/38 85/113/38
f 86/115/39 88/118/39 87/116/39
f 88/118/40 90/121/40 89/119/40
f 90/121/41 92/124/41 91/122/41
f 92/124/42 94/127/42 93/125/42
f 94/127/43 96/130/43 95/128/43
f 96/130/44 98/133/44 97/131/44
f 98/133/45 100/136/45 99/134/45
f 100/136/46 102/139/46 101/137/46
f 102/139/47 104/142/47 103/140/47
f 103/140/48 104/142/48 106/145/48
f 106/145/49 108/148/49 107/146/49
f 107/146/50 108/148/50 78/103/50
f 107/147/51 77/101/51 79/105/51
f 79/105/51 81/108/51 107/147/51
f 81/108/51 83/111/51 107/147/51
f 83/111/51 85/114/51 87/117/51
f 87/117/51 89/120/51 83/111/51
f 89/120/51 91/123/51 83/111/51
f 91/123/51 93/126/51 95/129/51
f 95/129/51 97/132/51 99/135/51
f 99/135/51 101/138/51 107/147/51
f 101/138/51 103/141/51 107/147/51
f 103/141/51 105/144/51 107/147/51
f 91/123/51 95/129/51 107/147/51
f 95/129/51 99/135/51 107/147/51
f 76/97/57 142/182/57 126/166/57
f 126/166/58 1/1/58 76/97/58
f 1/1/59 128/168/59 76/97/59
f 125/165/29 130/170/29 5/6/29
f 130/170/29 4/5/29 5/6/29
f 127/167/60 2/4/60 5/7/60
f 5/7/32 6/8/32 131/171/32
f 133/173/33 7/9/33 8/10/33
f 134/174/4 8/10/4 9/11/4
f 9/11/4 4/5/4 134/174/4
f 135/175/7 132/172/7 6/8/7
f 6/8/7 11/14/7 135/175/7
f 12/15/34 7/9/34 133/173/34
f 68/87/14 67/86/14 136/176/14
f 68/87/4 137/177/4 69/88/4
f 137/177/4 138/178/4 73/93/4
f 72/92/7 71/91/7 140/180/7
f 71/91/7 75/96/7 140/180/7
f 136/176/15 67/86/15 72/92/15
f 74/94/17 73/93/17 141/181/17
f 141/181/17 142/182/17 74/94/17
f 75/96/20 74/95/20 144/184/20
f 74/95/61 76/98/61 143/183/61
f 148/188/55 109/149/55 115/155/55
f 109/149/55 124/164/55 115/155/55
f 123/163/55 122/162/55 117/157/55
f 122/162/55 121/161/55 118/158/55
f 117/157/55 122/162/55 118/158/55
f 124/164/55 123/163/55 115/155/55
f 145/185/55 146/186/55 112/152/55
f 146/186/55 147/187/55 113/153/55
f 113/153/55 147/187/55 114/154/55
f 147/187/55 148/188/55 115/155/55
f 121/161/55 120/160/55 119/159/55
f 115/155/55 123/163/55 116/156/55
f 121/161/55 119/159/55 118/158/55
f 117/157/55 116/156/55 123/163/55
f 115/155/55 114/154/55 147/187/55
f 113/153/55 112/152/55 146/186/55
f 112/152/55 111/151/55 145/185/55
f 164/204/55 149/189/55 156/196/55
f 149/189/55 150/190/55 156/196/55
f 150/190/55 151/191/55 154/194/55
f 151/191/55 152/192/55 153/193/55
f 154/194/55 151/191/55 153/193/55
f 163/203/55 164/204/55 156/196/55
f 160/200/55 161/201/55 159/199/55
f 161/201/55 162/202/55 158/198/55
f 158/198/55 162/202/55 157/197/55
f 162/202/55 163/203/55 156/196/55
f 152/192/55 110/150/55 111/151/55
f 156/196/55 150/190/55 155/195/55
f 152/192/55 111/151/55 153/193/55
f 154/194/55 155/195/55 150/190/55
f 156/196/55 157/197/55 162/202/55
f 158/198/55 159/199/55 161/201/55
f 159/199/55 119/159/55 160/200/55
f 128/168/62 1/2/62 2/4/62
f 1/2/63 126/166/63 2/4/63
f 126/166/64 125/165/64 2/4/64
l 3 133
