# Blender 3.4.1
# www.blender.org
mtllib tent.mtl
o Cube
v -0.000500 0.409330 -0.089716
v -0.000500 0.001942 -0.367854
v 0.376275 0.409330 -0.062441
v -0.000500 0.001942 -0.324938
v 0.208035 0.001942 -0.304256
v 0.211325 0.409330 -0.059163
v 0.376275 0.001942 -0.367854
v 0.376275 0.409330 -0.089716
v -0.000500 0.409330 -0.062441
v 0.367854 0.001942 -0.324938
v 0.240610 0.001942 -0.306817
v 0.244705 0.409330 -0.065099
v 0.213772 0.001942 -0.124468
v 0.231327 0.001942 -0.367854
v 0.231327 0.409330 -0.089716
v 0.232040 0.001942 -0.124468
v 0.238373 0.479192 0.000000
v 0.212548 0.479192 0.000000
v 0.232040 0.358510 0.000000
v 0.213772 0.360943 0.000000
v -0.000500 0.493806 0.000000
v 0.376275 0.479428 0.000000
v 0.376275 0.500624 0.000000
v -0.000500 0.479428 0.000000
v 0.231327 0.489086 0.000000
v 0.376275 0.173886 -0.201900
v 0.213772 0.161349 -0.069005
v 0.232040 0.163080 -0.068356
v 0.242309 0.170985 -0.166869
v 0.376275 0.174411 -0.178327
v 0.231327 0.181295 -0.219589
v -0.000500 0.183858 -0.243654
v 0.000500 0.409330 -0.089716
v 0.000500 0.001942 -0.367854
v -0.376275 0.409330 -0.062441
v 0.000500 0.001942 -0.324938
v -0.208035 0.001942 -0.304256
v -0.211325 0.409330 -0.059163
v -0.376275 0.001942 -0.367854
v -0.376275 0.409330 -0.089716
v 0.000500 0.409330 -0.062441
v -0.367854 0.001942 -0.324938
v -0.240610 0.001942 -0.306817
v -0.244705 0.409330 -0.065099
v -0.213772 0.001942 -0.124468
v -0.231327 0.001942 -0.367854
v -0.231327 0.409330 -0.089716
v -0.232040 0.001942 -0.124468
v -0.238373 0.479192 0.000000
v -0.212548 0.479192 0.000000
v -0.232040 0.358510 0.000000
v -0.213772 0.360943 0.000000
v 0.000500 0.493806 0.000000
v -0.376275 0.479428 0.000000
v -0.376275 0.500624 0.000000
v 0.000500 0.479428 0.000000
v -0.231327 0.489086 0.000000
v -0.376275 0.173886 -0.201900
v -0.213772 0.161349 -0.069005
v -0.232040 0.163080 -0.068356
v -0.242309 0.170985 -0.166869
v -0.376275 0.174411 -0.178327
v -0.231327 0.181295 -0.219589
v 0.000500 0.183858 -0.243654
v -0.000500 0.409330 0.089716
v -0.000500 0.001942 0.367854
v 0.376275 0.409330 0.062441
v -0.000500 0.001942 0.324938
v 0.208035 0.001942 0.304256
v 0.211325 0.409330 0.059163
v 0.376275 0.001942 0.367854
v 0.376275 0.409330 0.089716
v -0.000500 0.409330 0.062441
v 0.367854 0.001942 0.324938
v 0.240610 0.001942 0.306817
v 0.244705 0.409330 0.065099
v 0.213772 0.001942 0.124468
v 0.231327 0.001942 0.367854
v 0.231327 0.409330 0.089716
v 0.232040 0.001942 0.124468
v 0.376275 0.173886 0.201900
v 0.213772 0.161349 0.069005
v 0.232040 0.163080 0.068356
v 0.242309 0.170985 0.166869
v 0.376275 0.174411 0.178327
v 0.231327 0.181295 0.219589
v -0.000500 0.183858 0.243654
v 0.000500 0.409330 0.089716
v 0.000500 0.001942 0.367854
v -0.376275 0.409330 0.062441
v 0.000500 0.001942 0.324938
v -0.208035 0.001942 0.304256
v -0.211325 0.409330 0.059163
v -0.376275 0.001942 0.367854
v -0.376275 0.409330 0.089716
v 0.000500 0.409330 0.062441
v -0.367854 0.001942 0.324938
v -0.240610 0.001942 0.306817
v -0.244705 0.409330 0.065099
v -0.213772 0.001942 0.124468
v -0.231327 0.001942 0.367854
v -0.231327 0.409330 0.089716
v -0.232040 0.001942 0.124468
v -0.376275 0.173886 0.201900
v -0.213772 0.161349 0.069005
v -0.232040 0.163080 0.068356
v -0.242309 0.170985 0.166869
v -0.376275 0.174411 0.178327
v -0.231327 0.181295 0.219589
v 0.000500 0.183858 0.243654
vn -1.0000 -0.0000 -0.0000
vn -0.0000 0.6371 -0.7707
vn 0.9648 -0.1827 0.1893
vn -0.0000 0.7474 -0.6644
vn 0.9943 -0.0351 0.1008
vn -0.0133 -0.5154 0.8569
vn 0.1075 -0.6470 0.7549
vn -0.0000 -1.0000 -0.0000
vn -0.9994 -0.0103 0.0329
vn -0.0000 -0.3286 0.9445
vn -0.0116 -0.6651 0.7467
vn -0.0000 0.5639 -0.8259
vn -0.1300 0.6696 -0.7312
vn -0.0000 -0.0000 1.0000
vn 0.0012 -0.6817 0.7317
vn 1.0000 -0.0000 -0.0000
vn -0.0557 0.6998 -0.7121
vn 0.9871 -0.0518 0.1516
vn -0.0435 -0.3264 0.9442
vn 0.0883 -0.3919 0.9158
vn -0.0000 0.4301 -0.9028
vn -0.0000 0.4949 -0.8690
vn -0.9648 -0.1827 0.1893
vn -0.9977 -0.0488 0.0469
vn 0.0831 -0.5398 0.8377
vn -0.1075 -0.6470 0.7549
vn 0.9994 -0.0111 0.0322
vn 0.0116 -0.6651 0.7467
vn 0.1300 0.6696 -0.7312
vn 0.0151 -0.6651 0.7466
vn -0.9880 -0.0690 0.1383
vn 0.0022 -0.3302 0.9439
vn -0.0883 -0.3919 0.9158
vn -0.1302 0.4907 -0.8616
vn -0.0916 0.5615 -0.8224
vn -0.0000 0.6371 0.7707
vn 0.9648 -0.1827 -0.1893
vn -0.0000 0.7474 0.6644
vn 0.9977 -0.0488 -0.0469
vn -0.0831 -0.5398 -0.8377
vn 0.1075 -0.6470 -0.7549
vn -0.9994 -0.0111 -0.0322
vn -0.0000 -0.3286 -0.9445
vn -0.0116 -0.6651 -0.7467
vn -0.0000 0.5639 0.8259
vn -0.1300 0.6696 0.7312
vn -0.0151 -0.6651 -0.7466
vn 0.9880 -0.0690 -0.1383
vn -0.0022 -0.3302 -0.9439
vn 0.0883 -0.3919 -0.9158
vn 0.1302 0.4907 0.8616
vn 0.0916 0.5615 0.8224
vn -0.9648 -0.1827 -0.1893
vn -0.9943 -0.0351 -0.1008
vn 0.0133 -0.5154 -0.8569
vn -0.1075 -0.6470 -0.7549
vn 0.9994 -0.0103 -0.0329
vn 0.0116 -0.6651 -0.7467
vn 0.1300 0.6696 0.7312
vn -0.0012 -0.6817 -0.7317
vn 0.0557 0.6998 0.7121
vn -0.9871 -0.0518 -0.1516
vn 0.0435 -0.3264 -0.9442
vn -0.0883 -0.3919 -0.9158
vn -0.0000 0.4301 0.9028
vn -0.0000 0.4949 0.8690
vn 0.1224 0.6892 -0.7141
vn 0.9988 -0.0497 0.0011
vn 0.0148 0.7280 -0.6854
vn 0.9977 -0.0488 0.0469
vn -0.0831 -0.5398 0.8377
vn 0.0819 -0.6361 0.7673
vn -0.9994 -0.0111 0.0319
vn -0.9994 -0.0111 0.0322
vn -0.0024 -0.3289 0.9444
vn -0.0007 -0.6462 0.7631
vn 0.0867 0.6347 -0.7678
vn -0.0000 0.6463 -0.7631
vn -0.0151 -0.6651 0.7466
vn 0.9943 -0.0353 0.1008
vn 0.9880 -0.0690 0.1383
vn -0.0022 -0.3302 0.9439
vn -0.0181 -0.4423 0.8967
vn 0.1302 0.4907 -0.8616
vn 0.0916 0.5615 -0.8224
vn -0.1224 0.6892 -0.7141
vn -0.9988 -0.0497 0.0011
vn -0.0148 0.7280 -0.6854
vn -0.9943 -0.0351 0.1008
vn 0.0133 -0.5154 0.8569
vn -0.0819 -0.6361 0.7673
vn 0.9994 -0.0111 0.0319
vn 0.9994 -0.0103 0.0329
vn 0.0024 -0.3289 0.9444
vn 0.0007 -0.6462 0.7631
vn -0.0867 0.6347 -0.7678
vn -0.0012 -0.6817 0.7317
vn 0.0557 0.6998 -0.7121
vn -0.9943 -0.0353 0.1008
vn -0.9871 -0.0518 0.1516
vn 0.0435 -0.3264 0.9442
vn 0.0181 -0.4423 0.8967
vn 0.1224 0.6892 0.7141
vn 0.9988 -0.0497 -0.0011
vn 0.0148 0.7280 0.6854
vn 0.9943 -0.0351 -0.1008
vn -0.0133 -0.5154 -0.8569
vn 0.0819 -0.6361 -0.7673
vn -0.9994 -0.0111 -0.0319
vn -0.9994 -0.0103 -0.0329
vn -0.0024 -0.3289 -0.9444
vn -0.0007 -0.6462 -0.7631
vn 0.0867 0.6347 0.7678
vn -0.0000 0.6463 0.7631
vn 0.0012 -0.6817 -0.7317
vn -0.0557 0.6998 0.7121
vn 0.9943 -0.0353 -0.1008
vn 0.9871 -0.0518 -0.1516
vn -0.0435 -0.3264 -0.9442
vn -0.0181 -0.4423 -0.8967
vn -0.1224 0.6892 0.7141
vn -0.9988 -0.0497 -0.0011
vn -0.0148 0.7280 0.6854
vn -0.9977 -0.0488 -0.0469
vn 0.0831 -0.5398 -0.8377
vn -0.0819 -0.6361 -0.7673
vn 0.9994 -0.0111 -0.0319
vn 0.9994 -0.0111 -0.0322
vn 0.0024 -0.3289 -0.9444
vn 0.0007 -0.6462 -0.7631
vn -0.0867 0.6347 0.7678
vn 0.0151 -0.6651 -0.7466
vn -0.9943 -0.0353 -0.1008
vn -0.9880 -0.0690 -0.1383
vn 0.0022 -0.3302 -0.9439
vn 0.0181 -0.4423 -0.8967
vn -0.1302 0.4907 0.8616
vn -0.0916 0.5615 0.8224
vt 0.625000 0.371968
vt 0.375000 0.371968
vt 0.246968 0.500000
vt 0.625000 0.514583
vt 0.246968 0.514583
vt 0.246968 0.625000
vt 0.265362 0.514583
vt 0.753032 0.625000
vt 0.734638 0.514583
vt 0.375000 0.500000
vt 0.625000 0.500000
vt 0.639937 0.401489
vt 0.375000 0.514583
vt 0.375000 0.625000
vt 0.328849 0.514583
vt 0.671151 0.514583
vt 0.625000 0.625000
vt 0.265362 0.625000
vt 0.375000 0.453849
vt 0.328849 0.500000
vt 0.375000 0.390362
vt 0.265362 0.500000
vt 0.625000 0.390362
vt 0.625000 0.453849
vt 0.328849 0.625000
vt 0.671151 0.514583
vt 0.625000 0.625000
vt 0.671151 0.625000
vt 0.734638 0.514583
vt 0.753032 0.625000
vt 0.734638 0.625000
vt 0.628450 0.625000
vt 0.678900 0.625000
vt 0.753032 0.500000
vt 0.625000 0.371968
vt 0.625000 0.514583
vt 0.625000 0.500000
vt 0.753032 0.514583
vt 0.639937 0.401489
vt 0.734638 0.500000
vt 0.671151 0.500000
vt 0.625000 0.390362
vt 0.625000 0.453849
vt 0.480516 0.500000
vt 0.448985 0.625000
vt 0.464243 0.625000
vt 0.478736 0.625000
vt 0.480838 0.514583
vt 0.485063 0.453849
vt 0.485063 0.390362
vt 0.415775 0.442829
vt 0.486635 0.371968
vt 0.625000 0.371968
vt 0.375000 0.371968
vt 0.246968 0.500000
vt 0.625000 0.514583
vt 0.246968 0.514583
vt 0.246968 0.625000
vt 0.265362 0.514583
vt 0.753032 0.625000
vt 0.734638 0.514583
vt 0.375000 0.500000
vt 0.625000 0.500000
vt 0.639937 0.401489
vt 0.375000 0.514583
vt 0.375000 0.625000
vt 0.328849 0.514583
vt 0.671151 0.514583
vt 0.625000 0.625000
vt 0.265362 0.625000
vt 0.375000 0.453849
vt 0.265362 0.500000
vt 0.328849 0.500000
vt 0.375000 0.390362
vt 0.625000 0.453849
vt 0.625000 0.390362
vt 0.328849 0.625000
vt 0.671151 0.514583
vt 0.625000 0.625000
vt 0.671151 0.625000
vt 0.734638 0.514583
vt 0.753032 0.625000
vt 0.734638 0.625000
vt 0.628450 0.625000
vt 0.678900 0.625000
vt 0.753032 0.500000
vt 0.625000 0.371968
vt 0.625000 0.514583
vt 0.625000 0.500000
vt 0.753032 0.514583
vt 0.639937 0.401489
vt 0.671151 0.500000
vt 0.734638 0.500000
vt 0.625000 0.390362
vt 0.625000 0.453849
vt 0.480516 0.500000
vt 0.448985 0.625000
vt 0.464243 0.625000
vt 0.478736 0.625000
vt 0.480838 0.514583
vt 0.485063 0.453849
vt 0.485063 0.390362
vt 0.415775 0.442829
vt 0.486635 0.371968
vt 0.625000 0.371968
vt 0.375000 0.371968
vt 0.246968 0.500000
vt 0.625000 0.514583
vt 0.246968 0.514583
vt 0.246968 0.625000
vt 0.265362 0.514583
vt 0.753032 0.625000
vt 0.734638 0.514583
vt 0.375000 0.500000
vt 0.625000 0.500000
vt 0.639937 0.401489
vt 0.375000 0.514583
vt 0.375000 0.625000
vt 0.328849 0.514583
vt 0.671151 0.514583
vt 0.625000 0.625000
vt 0.265362 0.625000
vt 0.375000 0.453849
vt 0.265362 0.500000
vt 0.328849 0.500000
vt 0.375000 0.390362
vt 0.625000 0.453849
vt 0.625000 0.390362
vt 0.328849 0.625000
vt 0.480516 0.500000
vt 0.448985 0.625000
vt 0.464243 0.625000
vt 0.478736 0.625000
vt 0.480838 0.514583
vt 0.485063 0.453849
vt 0.485063 0.390362
vt 0.415775 0.442829
vt 0.486635 0.371968
vt 0.625000 0.371968
vt 0.375000 0.371968
vt 0.246968 0.500000
vt 0.625000 0.514583
vt 0.246968 0.514583
vt 0.246968 0.625000
vt 0.265362 0.514583
vt 0.753032 0.625000
vt 0.734638 0.514583
vt 0.375000 0.500000
vt 0.625000 0.500000
vt 0.639937 0.401489
vt 0.375000 0.514583
vt 0.375000 0.625000
vt 0.328849 0.514583
vt 0.671151 0.514583
vt 0.625000 0.625000
vt 0.265362 0.625000
vt 0.375000 0.453849
vt 0.328849 0.500000
vt 0.375000 0.390362
vt 0.265362 0.500000
vt 0.625000 0.390362
vt 0.625000 0.453849
vt 0.328849 0.625000
vt 0.480516 0.500000
vt 0.448985 0.625000
vt 0.464243 0.625000
vt 0.478736 0.625000
vt 0.480838 0.514583
vt 0.485063 0.453849
vt 0.485063 0.390362
vt 0.415775 0.442829
vt 0.486635 0.371968
s 0
f 32/51/1 4/5/1 9/12/1
f 31/49/2 7/10/2 14/19/2
f 26/44/3 10/13/3 7/10/3
f 1/1/4 25/42/4 15/23/4
f 16/25/5 29/47/5 28/46/5
f 9/12/6 5/6/6 6/8/6
f 30/48/7 11/14/7 10/13/7
f 14/20/8 10/13/8 11/15/8
f 14/20/8 11/15/8 5/7/8
f 5/7/8 16/25/8 13/18/8
f 20/33/9 18/31/9 6/8/9
f 16/25/10 27/45/10 13/18/10
f 6/8/11 24/39/11 9/12/11
f 32/52/12 14/21/12 2/2/12
f 2/3/8 5/7/8 4/5/8
f 6/9/13 17/28/13 12/16/13
f 20/33/14 17/28/14 18/31/14
f 21/34/14 18/29/14 25/40/14
f 23/37/14 17/26/14 22/36/14
f 25/40/14 18/29/14 17/26/14
f 12/17/15 22/36/15 17/27/15
f 3/4/16 23/37/16 22/36/16
f 9/12/1 21/35/1 1/1/1
f 8/11/17 25/43/17 23/37/17
f 12/17/18 17/28/18 19/32/18
f 27/45/19 19/32/19 20/33/19
f 30/48/16 8/11/16 3/4/16
f 30/48/20 12/17/20 29/47/20
f 26/44/21 15/24/21 8/11/21
f 31/50/22 1/1/22 15/23/22
f 36/57/16 34/55/16 64/103/16
f 39/62/2 63/101/2 46/71/2
f 42/65/23 58/96/23 39/62/23
f 57/94/4 33/53/4 47/76/4
f 48/77/24 61/99/24 43/66/24
f 41/64/25 37/58/25 36/57/25
f 43/66/26 62/100/26 42/65/26
f 46/73/8 42/65/8 39/62/8
f 46/73/8 37/59/8 43/67/8
f 37/59/8 48/77/8 43/67/8
f 52/85/27 59/97/27 38/60/27
f 59/97/10 48/77/10 45/70/10
f 56/91/28 38/60/28 41/64/28
f 46/74/12 64/104/12 34/54/12
f 34/55/8 37/59/8 46/72/8
f 49/80/29 38/61/29 44/68/29
f 52/85/14 49/80/14 51/84/14
f 50/81/14 53/86/14 57/93/14
f 55/89/14 49/78/14 57/92/14
f 57/93/14 49/78/14 50/81/14
f 44/69/30 54/88/30 35/56/30
f 35/56/1 55/89/1 40/63/1
f 53/87/16 41/64/16 33/53/16
f 40/63/4 57/95/4 47/75/4
f 51/84/31 44/69/31 61/99/31
f 59/97/32 51/84/32 60/98/32
f 62/100/1 40/63/1 58/96/1
f 44/69/33 62/100/33 61/99/33
f 58/96/34 47/75/34 63/101/34
f 63/102/35 33/53/35 64/104/35
f 68/109/1 66/107/1 87/137/1
f 71/114/36 86/135/36 78/123/36
f 74/117/37 81/130/37 71/114/37
f 25/42/38 65/105/38 79/128/38
f 80/129/39 84/133/39 75/118/39
f 73/116/40 69/110/40 68/109/40
f 75/118/41 85/134/41 74/117/41
f 78/125/8 74/117/8 71/114/8
f 78/125/8 69/111/8 75/119/8
f 69/111/8 80/129/8 75/119/8
f 20/33/42 82/131/42 70/112/42
f 82/131/43 80/129/43 77/122/43
f 24/39/44 70/112/44 73/116/44
f 78/126/45 87/138/45 66/106/45
f 66/107/8 69/111/8 78/124/8
f 17/28/46 70/113/46 76/120/46
f 76/121/47 22/36/47 67/108/47
f 67/108/16 23/37/16 72/115/16
f 21/35/1 73/116/1 65/105/1
f 72/115/38 25/43/38 79/127/38
f 19/32/48 76/121/48 84/133/48
f 82/131/49 19/32/49 83/132/49
f 85/134/16 72/115/16 81/130/16
f 76/121/50 85/134/50 84/133/50
f 81/130/51 79/127/51 86/135/51
f 86/136/52 65/105/52 87/138/52
f 110/171/16 91/143/16 96/150/16
f 109/169/36 94/148/36 101/157/36
f 104/164/53 97/151/53 94/148/53
f 88/139/38 57/94/38 102/161/38
f 103/163/54 107/167/54 106/166/54
f 96/150/55 92/144/55 93/146/55
f 108/168/56 98/152/56 97/151/56
f 101/158/8 97/151/8 98/153/8
f 101/158/8 98/153/8 92/145/8
f 92/145/8 103/163/8 100/156/8
f 52/85/57 50/83/57 93/146/57
f 103/163/43 105/165/43 100/156/43
f 93/146/58 56/91/58 96/150/58
f 110/172/45 101/159/45 89/140/45
f 89/141/8 92/145/8 91/143/8
f 93/147/59 49/80/59 99/154/59
f 99/155/60 54/88/60 49/79/60
f 90/142/1 55/89/1 54/88/1
f 96/150/16 53/87/16 88/139/16
f 95/149/61 57/95/61 55/89/61
f 99/155/62 49/80/62 51/84/62
f 105/165/63 51/84/63 52/85/63
f 108/168/1 95/149/1 90/142/1
f 108/168/64 99/155/64 107/167/64
f 104/164/65 102/162/65 95/149/65
f 109/170/66 88/139/66 102/161/66
f 9/12/1 1/1/1 32/51/1
f 32/51/1 2/3/1 4/5/1
f 31/49/67 26/44/67 7/10/67
f 26/44/68 30/48/68 10/13/68
f 1/1/69 21/35/69 25/42/69
f 16/25/70 11/14/70 29/47/70
f 9/12/71 4/5/71 5/6/71
f 30/48/72 29/47/72 11/14/72
f 14/20/8 7/10/8 10/13/8
f 5/7/8 11/15/8 16/25/8
f 6/8/73 5/6/73 27/45/73
f 5/6/73 13/18/73 27/45/73
f 27/45/74 20/33/74 6/8/74
f 16/25/75 28/46/75 27/45/75
f 6/8/76 18/30/76 24/39/76
f 32/52/77 31/50/77 14/21/77
f 2/3/8 14/22/8 5/7/8
f 6/9/78 18/31/78 17/28/78
f 20/33/14 19/32/14 17/28/14
f 21/34/14 24/38/14 18/29/14
f 23/37/14 25/41/14 17/26/14
f 12/17/79 3/4/79 22/36/79
f 3/4/16 8/11/16 23/37/16
f 9/12/1 24/39/1 21/35/1
f 8/11/4 15/24/4 25/43/4
f 19/32/80 28/46/80 29/47/80
f 29/47/81 12/17/81 19/32/81
f 27/45/82 28/46/82 19/32/82
f 30/48/16 26/44/16 8/11/16
f 30/48/83 3/4/83 12/17/83
f 26/44/84 31/49/84 15/24/84
f 31/50/85 32/52/85 1/1/85
f 64/103/16 33/53/16 41/64/16
f 41/64/16 36/57/16 64/103/16
f 39/62/86 58/96/86 63/101/86
f 42/65/87 62/100/87 58/96/87
f 57/94/88 53/87/88 33/53/88
f 48/77/89 60/98/89 61/99/89
f 41/64/90 38/60/90 37/58/90
f 43/66/91 61/99/91 62/100/91
f 46/73/8 43/67/8 42/65/8
f 37/59/8 45/70/8 48/77/8
f 45/70/92 37/58/92 59/97/92
f 37/58/92 38/60/92 59/97/92
f 38/60/93 50/83/93 52/85/93
f 59/97/94 60/98/94 48/77/94
f 56/91/95 50/82/95 38/60/95
f 46/74/96 63/102/96 64/104/96
f 34/55/8 36/57/8 37/59/8
f 49/80/78 50/83/78 38/61/78
f 52/85/14 50/83/14 49/80/14
f 50/81/14 56/90/14 53/86/14
f 55/89/14 54/88/14 49/78/14
f 44/69/97 49/79/97 54/88/97
f 35/56/1 54/88/1 55/89/1
f 53/87/16 56/91/16 41/64/16
f 40/63/98 55/89/98 57/95/98
f 61/99/99 60/98/99 51/84/99
f 51/84/100 49/80/100 44/69/100
f 59/97/101 52/85/101 51/84/101
f 62/100/1 35/56/1 40/63/1
f 44/69/102 35/56/102 62/100/102
f 58/96/21 40/63/21 47/75/21
f 63/102/22 47/76/22 33/53/22
f 87/137/1 65/105/1 73/116/1
f 73/116/1 68/109/1 87/137/1
f 71/114/103 81/130/103 86/135/103
f 74/117/104 85/134/104 81/130/104
f 25/42/105 21/35/105 65/105/105
f 80/129/106 83/132/106 84/133/106
f 73/116/107 70/112/107 69/110/107
f 75/118/108 84/133/108 85/134/108
f 78/125/8 75/119/8 74/117/8
f 69/111/8 77/122/8 80/129/8
f 77/122/109 69/110/109 82/131/109
f 69/110/109 70/112/109 82/131/109
f 70/112/110 18/31/110 20/33/110
f 82/131/111 83/132/111 80/129/111
f 24/39/112 18/30/112 70/112/112
f 78/126/113 86/136/113 87/138/113
f 66/107/8 68/109/8 69/111/8
f 17/28/114 18/31/114 70/113/114
f 76/121/115 17/27/115 22/36/115
f 67/108/16 22/36/16 23/37/16
f 21/35/1 24/39/1 73/116/1
f 72/115/116 23/37/116 25/43/116
f 84/133/117 83/132/117 19/32/117
f 19/32/118 17/28/118 76/121/118
f 82/131/119 20/33/119 19/32/119
f 85/134/16 67/108/16 72/115/16
f 76/121/120 67/108/120 85/134/120
f 81/130/65 72/115/65 79/127/65
f 86/136/66 79/128/66 65/105/66
f 96/150/16 88/139/16 110/171/16
f 110/171/16 89/141/16 91/143/16
f 109/169/121 104/164/121 94/148/121
f 104/164/122 108/168/122 97/151/122
f 88/139/123 53/87/123 57/94/123
f 103/163/124 98/152/124 107/167/124
f 96/150/125 91/143/125 92/144/125
f 108/168/126 107/167/126 98/152/126
f 101/158/8 94/148/8 97/151/8
f 92/145/8 98/153/8 103/163/8
f 93/146/127 92/144/127 105/165/127
f 92/144/127 100/156/127 105/165/127
f 105/165/128 52/85/128 93/146/128
f 103/163/129 106/166/129 105/165/129
f 93/146/130 50/82/130 56/91/130
f 110/172/131 109/170/131 101/159/131
f 89/141/8 101/160/8 92/145/8
f 93/147/114 50/83/114 49/80/114
f 99/155/132 90/142/132 54/88/132
f 90/142/1 95/149/1 55/89/1
f 96/150/16 56/91/16 53/87/16
f 95/149/38 102/162/38 57/95/38
f 51/84/133 106/166/133 107/167/133
f 107/167/134 99/155/134 51/84/134
f 105/165/135 106/166/135 51/84/135
f 108/168/1 104/164/1 95/149/1
f 108/168/136 90/142/136 99/155/136
f 104/164/137 109/169/137 102/162/137
f 109/170/138 110/172/138 88/139/138
